<svg width="19" height="19" viewBox="0 0 19 19" fill="none" xmlns="http://www.w3.org/2000/svg">
<path fill-rule="evenodd" clip-rule="evenodd" d="M3.85039 5.4999C3.85039 3.76021 5.26069 2.3499 7.00039 2.3499C8.74009 2.3499 10.1504 3.76021 10.1504 5.4999C10.1504 7.2396 8.74009 8.6499 7.00039 8.6499C5.26069 8.6499 3.85039 7.2396 3.85039 5.4999ZM7.00039 0.649902C4.32181 0.649902 2.15039 2.82132 2.15039 5.4999C2.15039 8.17848 4.32181 10.3499 7.00039 10.3499C9.67897 10.3499 11.8504 8.17848 11.8504 5.4999C11.8504 2.82132 9.67897 0.649902 7.00039 0.649902ZM1.85039 15.4166C1.85039 15.0136 2.17904 14.4978 3.21876 14.0387C4.20829 13.6017 5.58463 13.3499 7.00039 13.3499C8.3961 13.3499 9.77128 13.643 10.7683 14.1046C11.2672 14.3356 11.6332 14.5911 11.8634 14.8377C12.085 15.0752 12.148 15.2655 12.1503 15.4084C12.1422 15.4299 12.1054 15.498 11.9631 15.6087C11.7446 15.7785 11.3801 15.9615 10.8653 16.1269C9.84495 16.4548 8.43669 16.6499 7.00039 16.6499C5.30189 16.6499 3.90375 16.452 2.96169 16.1315C2.48803 15.9703 2.18145 15.7954 2.00808 15.6424C1.84932 15.5023 1.85024 15.4285 1.85038 15.4173L1.85039 15.4166ZM12.1523 15.4009C12.1525 15.401 12.1523 15.4029 12.1509 15.4067C12.1514 15.4028 12.1521 15.4009 12.1523 15.4009ZM7.00039 11.6499C5.41615 11.6499 3.79249 11.9269 2.53202 12.4836C1.32174 13.018 0.150391 13.9606 0.150391 15.4166C0.150391 16.0455 0.467942 16.5506 0.883325 16.9171C1.28808 17.2743 1.82525 17.5405 2.41409 17.7409C3.59703 18.1434 5.19889 18.3499 7.00039 18.3499C8.56409 18.3499 10.1558 18.1406 11.3854 17.7454C11.9957 17.5493 12.5686 17.2912 13.0064 16.9509C13.4408 16.6133 13.8504 16.1033 13.8504 15.4166C13.8504 14.727 13.5365 14.1388 13.1062 13.6777C12.6801 13.2212 12.1085 12.8517 11.4825 12.5619C10.2295 11.9818 8.60468 11.6499 7.00039 11.6499ZM13.1543 9.41837C13.1993 8.95109 13.6146 8.60879 14.0819 8.65382C15.2961 8.77082 16.4226 9.08644 17.2738 9.57868C18.0981 10.0554 18.8504 10.8199 18.8504 11.8732C18.8504 12.4191 18.6414 12.9169 18.2353 13.3125C17.8523 13.6854 17.3295 13.9348 16.7322 14.1042C16.2806 14.2322 15.8107 13.9699 15.6826 13.5182C15.5546 13.0666 15.8169 12.5967 16.2686 12.4686C16.7161 12.3417 16.9433 12.1977 17.0492 12.0946C17.1318 12.0142 17.1504 11.9535 17.1504 11.8732C17.1504 11.7165 17.0332 11.4033 16.4228 11.0503C15.8392 10.7129 14.9657 10.4469 13.9189 10.346C13.4516 10.301 13.1093 9.88565 13.1543 9.41837ZM15.0004 0.649902C14.5309 0.649902 14.1504 1.03046 14.1504 1.4999C14.1504 1.96934 14.5309 2.3499 15.0004 2.3499C15.9117 2.3499 16.6504 3.08863 16.6504 3.9999C16.6504 4.91117 15.9117 5.6499 15.0004 5.6499C14.5309 5.6499 14.1504 6.03046 14.1504 6.4999C14.1504 6.96934 14.5309 7.3499 15.0004 7.3499C16.8505 7.3499 18.3504 5.85006 18.3504 3.9999C18.3504 2.14975 16.8505 0.649902 15.0004 0.649902Z" fill="#e81a2a"/>
</svg>
